<svg width="22" height="22" viewBox="0 0 22 22" fill="none" xmlns="http://www.w3.org/2000/svg">
<path d="M20 10.2002C20 9.62365 19.9987 9.25111 19.9756 8.96778C19.9534 8.6962 19.9158 8.59533 19.8906 8.5459C19.7949 8.358 19.6421 8.20525 19.4541 8.10938C19.4047 8.0842 19.3038 8.04662 19.0322 8.02442C18.7489 8.00127 18.3764 8 17.7998 8H10.2002C9.62365 8 9.25112 8.00127 8.96778 8.02442C8.69619 8.04662 8.59534 8.08419 8.5459 8.10938C8.35793 8.20521 8.20521 8.35793 8.10938 8.5459C8.08419 8.59534 8.04662 8.69619 8.02442 8.96778C8.00127 9.25112 8 9.62365 8 10.2002V17.7998C8 18.3764 8.00127 18.7489 8.02442 19.0322C8.04662 19.3038 8.0842 19.4047 8.10938 19.4541C8.20525 19.6421 8.358 19.7949 8.5459 19.8906C8.59533 19.9158 8.6962 19.9534 8.96778 19.9756C9.25111 19.9987 9.62365 20 10.2002 20H17.7998C18.3764 20 18.7489 19.9987 19.0322 19.9756C19.3038 19.9534 19.4047 19.9158 19.4541 19.8906C19.6421 19.7948 19.7948 19.6421 19.8906 19.4541C19.9158 19.4047 19.9534 19.3038 19.9756 19.0322C19.9987 18.7489 20 18.3764 20 17.7998V10.2002ZM16.793 10.793C17.1835 10.4024 17.8165 10.4024 18.207 10.793C18.5976 11.1835 18.5976 11.8165 18.207 12.207L13.707 16.707C13.3165 17.0976 12.6835 17.0976 12.293 16.707L10.293 14.707C9.90245 14.3165 9.90245 13.6835 10.293 13.293C10.6835 12.9024 11.3165 12.9024 11.707 13.293L13 14.5859L16.793 10.793ZM14 4.2002C14 3.62365 13.9987 3.25111 13.9756 2.96778C13.9534 2.6962 13.9158 2.59533 13.8906 2.5459C13.7949 2.358 13.6421 2.20525 13.4541 2.10938C13.4047 2.0842 13.3038 2.04662 13.0322 2.02442C12.7489 2.00127 12.3764 2 11.7998 2H4.2002C3.62365 2 3.25112 2.00127 2.96778 2.02442C2.69619 2.04662 2.59534 2.08419 2.5459 2.10938C2.35793 2.20521 2.20521 2.35793 2.10938 2.5459C2.08419 2.59534 2.04662 2.69619 2.02442 2.96778C2.00127 3.25112 2 3.62365 2 4.2002V11.7998C2 12.3764 2.00127 12.7489 2.02442 13.0322C2.04662 13.3038 2.0842 13.4047 2.10938 13.4541C2.20525 13.6421 2.358 13.7949 2.5459 13.8906C2.59533 13.9158 2.6962 13.9534 2.96778 13.9756C3.25111 13.9987 3.62365 14 4.2002 14H6V10.2002C6 9.65665 5.99893 9.18836 6.03028 8.80469C6.06259 8.40943 6.1344 8.016 6.32715 7.6377C6.61472 7.07347 7.07347 6.61472 7.6377 6.32715C8.016 6.1344 8.40943 6.06259 8.80469 6.03028C9.18836 5.99893 9.65665 6 10.2002 6H14V4.2002ZM16 6H17.7998C18.3434 6 18.8116 5.99893 19.1953 6.03028C19.5906 6.06259 19.984 6.13438 20.3623 6.32715C20.9264 6.61468 21.3853 7.07339 21.6729 7.6377C21.8656 8.016 21.9374 8.40943 21.9697 8.80469C22.0011 9.18837 22 9.65665 22 10.2002V17.7998C22 18.3434 22.0011 18.8116 21.9697 19.1953C21.9374 19.5906 21.8656 19.984 21.6729 20.3623C21.3853 20.9265 20.9265 21.3853 20.3623 21.6729C19.984 21.8656 19.5906 21.9374 19.1953 21.9697C18.8116 22.0011 18.3434 22 17.7998 22H10.2002C9.65665 22 9.18837 22.0011 8.80469 21.9697C8.40943 21.9374 8.016 21.8656 7.6377 21.6729C7.07339 21.3853 6.61468 20.9264 6.32715 20.3623C6.13438 19.984 6.06259 19.5906 6.03028 19.1953C5.99893 18.8116 6 18.3434 6 17.7998V16H4.2002C3.65665 16 3.18837 16.0011 2.80469 15.9697C2.40943 15.9374 2.016 15.8656 1.6377 15.6729C1.07339 15.3853 0.614682 14.9264 0.327153 14.3623C0.134382 13.984 0.0625876 13.5906 0.0302779 13.1953C-0.0010696 12.8116 4.4183e-06 12.3434 4.4183e-06 11.7998V4.2002C4.4183e-06 3.65665 -0.00106972 3.18836 0.0302779 2.80469C0.0625892 2.40943 0.134396 2.016 0.327153 1.6377C0.614721 1.07347 1.07347 0.614721 1.6377 0.327153C2.016 0.134396 2.40943 0.0625892 2.80469 0.0302779C3.18836 -0.00106972 3.65665 4.4183e-06 4.2002 4.4183e-06H11.7998C12.3434 4.4183e-06 12.8116 -0.0010696 13.1953 0.0302779C13.5906 0.0625876 13.984 0.134382 14.3623 0.327153C14.9264 0.614682 15.3853 1.07339 15.6729 1.6377C15.8656 2.016 15.9374 2.40943 15.9697 2.80469C16.0011 3.18837 16 3.65665 16 4.2002V6Z" fill="black"/>
</svg>
