<svg width="22" height="22" viewBox="0 0 22 22" fill="none" xmlns="http://www.w3.org/2000/svg">
<path d="M20 11.2002C20 10.6236 19.9987 10.2511 19.9756 9.96778C19.9534 9.69617 19.9158 9.59531 19.8906 9.5459C19.7949 9.358 19.6421 9.20525 19.4541 9.10938C19.4047 9.0842 19.3038 9.04662 19.0322 9.02442C18.7489 9.00127 18.3764 9 17.7998 9H11.2002C10.6236 9 10.2511 9.00127 9.96778 9.02442C9.69616 9.04662 9.59531 9.0842 9.5459 9.10938C9.35793 9.20521 9.20521 9.35793 9.10938 9.5459C9.0842 9.59531 9.04662 9.69616 9.02442 9.96778C9.00127 10.2511 9 10.6236 9 11.2002V17.7998C9 18.3764 9.00127 18.7489 9.02442 19.0322C9.04662 19.3038 9.0842 19.4047 9.10938 19.4541C9.20525 19.6421 9.358 19.7949 9.5459 19.8906C9.59531 19.9158 9.69617 19.9534 9.96778 19.9756C10.2511 19.9987 10.6236 20 11.2002 20H17.7998C18.3764 20 18.7489 19.9987 19.0322 19.9756C19.3038 19.9534 19.4047 19.9158 19.4541 19.8906C19.6421 19.7948 19.7948 19.6421 19.8906 19.4541C19.9158 19.4047 19.9534 19.3038 19.9756 19.0322C19.9987 18.7489 20 18.3764 20 17.7998V11.2002ZM13 4C13 3.52039 12.9996 3.21063 12.9834 2.97364C12.9678 2.7457 12.9411 2.65883 12.9238 2.61719C12.8223 2.37231 12.6277 2.17768 12.3828 2.07618C12.3411 2.05892 12.2543 2.03216 12.0264 2.01661C11.7894 2.00044 11.4796 2 11 2H4.2002C3.62365 2 3.25112 2.00127 2.96778 2.02442C2.69619 2.04662 2.59534 2.08419 2.5459 2.10938C2.35793 2.20521 2.20521 2.35793 2.10938 2.5459C2.08419 2.59534 2.04662 2.69619 2.02442 2.96778C2.00127 3.25112 2 3.62365 2 4.2002V11C2 11.4796 2.00044 11.7894 2.01661 12.0264C2.03216 12.2543 2.05892 12.3411 2.07618 12.3828C2.17768 12.6277 2.37231 12.8223 2.61719 12.9238C2.65883 12.9411 2.7457 12.9678 2.97364 12.9834C3.21063 12.9996 3.52039 13 4 13C4.55229 13 5 13.4477 5 14C5 14.5523 4.55229 15 4 15C3.54786 15 3.15868 15.0004 2.8379 14.9785C2.50808 14.956 2.17747 14.9064 1.85157 14.7715C1.11676 14.467 0.532974 13.8831 0.22852 13.1484C0.0935407 12.8225 0.0439937 12.492 0.0214888 12.1621C-0.00038407 11.8413 4.4183e-06 11.4521 4.4183e-06 11V4.2002C4.4183e-06 3.65665 -0.00106972 3.18836 0.0302779 2.80469C0.0625892 2.40943 0.134396 2.016 0.327153 1.6377C0.614721 1.07347 1.07347 0.614721 1.6377 0.327153C2.016 0.134396 2.40943 0.0625892 2.80469 0.0302779C3.18836 -0.00106972 3.65665 4.4183e-06 4.2002 4.4183e-06H11C11.4521 4.4183e-06 11.8413 -0.00038407 12.1621 0.0214888C12.492 0.0439937 12.8225 0.0935407 13.1484 0.22852C13.8831 0.532974 14.467 1.11676 14.7715 1.85157C14.9064 2.17747 14.956 2.50808 14.9785 2.8379C15.0004 3.15868 15 3.54786 15 4C15 4.55229 14.5523 5 14 5C13.4477 5 13 4.55229 13 4ZM22 17.7998C22 18.3434 22.0011 18.8116 21.9697 19.1953C21.9374 19.5906 21.8656 19.984 21.6729 20.3623C21.3853 20.9265 20.9265 21.3853 20.3623 21.6729C19.984 21.8656 19.5906 21.9374 19.1953 21.9697C18.8116 22.0011 18.3434 22 17.7998 22H11.2002C10.6567 22 10.1884 22.0011 9.80469 21.9697C9.40943 21.9374 9.01601 21.8656 8.6377 21.6729C8.0734 21.3853 7.61469 20.9264 7.32715 20.3623C7.13438 19.984 7.06259 19.5906 7.03028 19.1953C6.99893 18.8116 7 18.3434 7 17.7998V11.2002C7 10.6567 6.99893 10.1884 7.03028 9.80469C7.06259 9.40943 7.13438 9.01601 7.32715 8.6377C7.61472 8.07348 8.07348 7.61472 8.6377 7.32715C9.01601 7.13438 9.40943 7.06259 9.80469 7.03028C10.1884 6.99893 10.6567 7 11.2002 7H17.7998C18.3434 7 18.8116 6.99893 19.1953 7.03028C19.5906 7.06259 19.984 7.13438 20.3623 7.32715C20.9264 7.61469 21.3853 8.0734 21.6729 8.6377C21.8656 9.01601 21.9374 9.40943 21.9697 9.80469C22.0011 10.1884 22 10.6567 22 11.2002V17.7998Z" fill="black"/>
</svg>
